<svg width="22" height="17" viewBox="0 0 22 17" fill="none" xmlns="http://www.w3.org/2000/svg">
<path d="M18.7494 5.27137V3.375C18.7484 2.4802 18.3925 1.62233 17.7598 0.989611C17.1271 0.356891 16.2692 0.00099257 15.3744 0H6.37442C5.47962 0.00099257 4.62175 0.356891 3.98903 0.989611C3.35631 1.62233 3.00041 2.4802 2.99942 3.375V5.27137C2.17451 5.36373 1.41256 5.75684 0.859233 6.37558C0.305902 6.99431 0 7.79526 0 8.62533C0 9.45539 0.305902 10.2563 0.859233 10.8751C1.41256 11.4938 2.17451 11.8869 2.99942 11.9793V15.375C2.99977 15.6733 3.1184 15.9592 3.32931 16.1701C3.54021 16.381 3.82616 16.4997 4.12442 16.5H17.6244C17.9227 16.4997 18.2086 16.381 18.4195 16.1701C18.6304 15.9592 18.7491 15.6733 18.7494 15.375V11.9794C19.5744 11.8871 20.3365 11.494 20.8899 10.8753C21.4433 10.2565 21.7493 9.45551 21.7493 8.62537C21.7493 7.79524 21.4433 6.99422 20.8899 6.37547C20.3365 5.75671 19.5744 5.36363 18.7494 5.27137ZM6.37442 0.75H15.3744C16.0704 0.750769 16.7376 1.02758 17.2297 1.51969C17.7218 2.01181 17.9986 2.67904 17.9994 3.375V5.27137C17.1749 5.36456 16.4134 5.75786 15.8601 6.37632C15.3069 6.99479 15.0005 7.79519 14.9994 8.625V9H6.74942V8.625C6.74831 7.79519 6.44195 6.99479 5.88869 6.37632C5.33544 5.75786 4.57398 5.36456 3.74942 5.27137V3.375C3.75019 2.67904 4.027 2.01181 4.51911 1.51969C5.01123 1.02758 5.67846 0.750769 6.37442 0.75ZM18.4022 11.2499C18.393 11.2492 18.3837 11.2489 18.3744 11.2489C18.275 11.2489 18.1796 11.2884 18.1093 11.3587C18.0389 11.429 17.9994 11.5244 17.9994 11.6239V15.375C17.9993 15.4744 17.9597 15.5697 17.8894 15.64C17.8191 15.7103 17.7238 15.7499 17.6244 15.75H4.12442C4.025 15.7499 3.92969 15.7103 3.85939 15.64C3.78909 15.5697 3.74954 15.4744 3.74942 15.375V11.6232C3.74925 11.5239 3.70966 11.4287 3.63935 11.3585C3.56904 11.2883 3.47376 11.2489 3.37442 11.2489C3.36504 11.2489 3.35579 11.2492 3.34667 11.2498C2.8287 11.2443 2.32393 11.0857 1.89592 10.794C1.4679 10.5022 1.13577 10.0904 0.941343 9.61023C0.746917 9.13011 0.698887 8.6032 0.803301 8.09583C0.907714 7.58847 1.1599 7.12334 1.52812 6.759C1.89633 6.39467 2.3641 6.14742 2.87254 6.04838C3.38098 5.94935 3.90736 6.00295 4.3854 6.20245C4.86344 6.40195 5.27176 6.73842 5.55897 7.1695C5.84618 7.60058 5.99943 8.107 5.99942 8.625V12.375C5.99942 12.4745 6.03893 12.5698 6.10925 12.6402C6.17958 12.7105 6.27496 12.75 6.37442 12.75C6.47388 12.75 6.56926 12.7105 6.63958 12.6402C6.70991 12.5698 6.74942 12.4745 6.74942 12.375V9.75H14.9994V12.375C14.9994 12.4745 15.0389 12.5698 15.1093 12.6402C15.1796 12.7105 15.275 12.75 15.3744 12.75C15.4739 12.75 15.5693 12.7105 15.6396 12.6402C15.7099 12.5698 15.7494 12.4745 15.7494 12.375V8.625C15.7494 8.10701 15.9027 7.6006 16.1899 7.16953C16.4771 6.73846 16.8855 6.402 17.3635 6.20252C17.8415 6.00303 18.3679 5.94944 18.8764 6.04849C19.3848 6.14753 19.8526 6.39479 20.2208 6.75913C20.589 7.12347 20.8411 7.5886 20.9455 8.09596C21.05 8.60332 21.0019 9.13023 20.8075 9.61035C20.6131 10.0905 20.2809 10.5023 19.8529 10.7941C19.4249 11.0858 18.9201 11.2444 18.4022 11.2499Z" fill="#909090"/>
</svg>
