<svg width="16" height="14" viewBox="0 0 16 14" fill="none" xmlns="http://www.w3.org/2000/svg">
<path d="M11.5 2.96809e-08C12.1347 -9.77163e-05 12.7457 0.241233 13.209 0.67504C13.6724 1.10885 13.9534 1.70265 13.995 2.336L14 2.5V5.05C14.5358 5.15959 15.021 5.4418 15.3811 5.85342C15.7413 6.26503 15.9565 6.78336 15.994 7.329L16 7.5V13.5C16.0002 13.6249 15.9537 13.7455 15.8695 13.8378C15.7853 13.9301 15.6696 13.9876 15.5452 13.9989C15.4207 14.0102 15.2966 13.9745 15.1972 13.8988C15.0977 13.8231 15.0303 13.7129 15.008 13.59L15 13.5V11H1V13.5C1.00023 13.6249 0.953671 13.7455 0.869492 13.8378C0.785312 13.9301 0.669613 13.9876 0.545178 13.9989C0.420743 14.0102 0.29659 13.9745 0.197168 13.8988C0.0977463 13.8231 0.0302602 13.7129 0.00799995 13.59L5.21142e-08 13.5V7.5C-0.000117575 6.92367 0.198892 6.36501 0.563347 5.91855C0.927802 5.47209 1.43532 5.16527 2 5.05V2.5C1.9999 1.86528 2.24123 1.25429 2.67504 0.790955C3.10885 0.327621 3.70265 0.0466377 4.336 0.00500014L4.5 2.96809e-08H11.5ZM13.5 6H2.5C2.12727 5.99999 1.7679 6.13876 1.49189 6.38925C1.21589 6.63974 1.04303 6.98402 1.007 7.355L1 7.5V10H15V7.5C15 7.12727 14.8612 6.7679 14.6108 6.49189C14.3603 6.21589 14.016 6.04303 13.645 6.007L13.5 6ZM11.5 1H4.5C4.12712 1.00002 3.76761 1.13892 3.49158 1.38962C3.21555 1.64032 3.0428 1.98484 3.007 2.356L3 2.5V5H4V4.5C4 4.36739 4.05268 4.24021 4.14645 4.14645C4.24021 4.05268 4.36739 4 4.5 4H7C7.13261 4 7.25979 4.05268 7.35355 4.14645C7.44732 4.24021 7.5 4.36739 7.5 4.5V5H8.5V4.5C8.5 4.36739 8.55268 4.24021 8.64645 4.14645C8.74021 4.05268 8.86739 4 9 4H11.5C11.6326 4 11.7598 4.05268 11.8536 4.14645C11.9473 4.24021 12 4.36739 12 4.5V5H13V2.5C13 2.12727 12.8612 1.7679 12.6108 1.49189C12.3603 1.21589 12.016 1.04303 11.645 1.007L11.5 1Z" fill="#909090"/>
</svg>
