<svg width="22" height="19" viewBox="0 0 22 19" fill="none" xmlns="http://www.w3.org/2000/svg">
<path d="M20.6304 13.4508H6.67339L7.37417 12.0234L19.0179 12.0023C19.4117 12.0023 19.7492 11.7211 19.8195 11.332L21.432 2.30625C21.4742 2.06953 21.4109 1.82578 21.2562 1.64062C21.1797 1.5495 21.0844 1.4761 20.9767 1.42551C20.8691 1.37492 20.7517 1.34835 20.6328 1.34766L5.82026 1.29844L5.6937 0.703125C5.61401 0.323437 5.27183 0.046875 4.88276 0.046875H1.26167C1.04224 0.046875 0.831807 0.134041 0.67665 0.289198C0.521492 0.444355 0.434326 0.654794 0.434326 0.874219C0.434326 1.09364 0.521492 1.30408 0.67665 1.45924C0.831807 1.6144 1.04224 1.70156 1.26167 1.70156H4.21245L4.76558 4.33125L6.12729 10.9242L4.37417 13.7859C4.28313 13.9088 4.22829 14.0547 4.21587 14.2071C4.20344 14.3596 4.23392 14.5124 4.30386 14.6484C4.44448 14.9273 4.72808 15.1031 5.04214 15.1031H6.51401C6.20023 15.5199 6.03074 16.0275 6.0312 16.5492C6.0312 17.8758 7.10933 18.9539 8.43589 18.9539C9.76245 18.9539 10.8406 17.8758 10.8406 16.5492C10.8406 16.0266 10.6671 15.518 10.3578 15.1031H14.1335C13.8198 15.5199 13.6503 16.0275 13.6507 16.5492C13.6507 17.8758 14.7289 18.9539 16.0554 18.9539C17.382 18.9539 18.4601 17.8758 18.4601 16.5492C18.4601 16.0266 18.2867 15.518 17.9773 15.1031H20.6328C21.0875 15.1031 21.4601 14.7328 21.4601 14.2758C21.4587 14.0566 21.3707 13.8468 21.2153 13.6923C21.0599 13.5377 20.8496 13.4509 20.6304 13.4508ZM6.16479 2.92969L19.6601 2.97422L18.3382 10.3758L7.73745 10.3945L6.16479 2.92969ZM8.43589 17.2898C8.02808 17.2898 7.69526 16.957 7.69526 16.5492C7.69526 16.1414 8.02808 15.8086 8.43589 15.8086C8.8437 15.8086 9.17651 16.1414 9.17651 16.5492C9.17651 16.7456 9.09848 16.934 8.95959 17.0729C8.82069 17.2118 8.63231 17.2898 8.43589 17.2898ZM16.0554 17.2898C15.6476 17.2898 15.3148 16.957 15.3148 16.5492C15.3148 16.1414 15.6476 15.8086 16.0554 15.8086C16.4632 15.8086 16.796 16.1414 16.796 16.5492C16.796 16.7456 16.718 16.934 16.5791 17.0729C16.4402 17.2118 16.2518 17.2898 16.0554 17.2898Z" fill="#808080"/>
</svg>
