<svg width="25" height="24" viewBox="0 0 25 24" fill="none" xmlns="http://www.w3.org/2000/svg">
<path fill-rule="evenodd" clip-rule="evenodd" d="M4.3951 17.6857C4.18009 17.4757 4.07258 17.1837 4.0992 16.8877L4.48725 12.7177C4.53026 12.2607 4.73708 11.8297 5.07087 11.5037L14.2817 2.5077C15.0005 1.8027 16.3039 1.8377 17.0625 2.5767L19.8659 5.3147L19.867 5.3157C20.6502 6.0817 20.682 7.2997 19.9366 8.0297L10.7247 17.0267C10.392 17.3517 9.95068 17.5537 9.48174 17.5957L5.21216 17.9747C5.18144 17.9767 5.15073 17.9777 5.11899 17.9777C4.84971 17.9777 4.58862 17.8737 4.3951 17.6857ZM16.4011 8.6567L13.6418 5.9617L15.6363 4.0127L18.3946 6.7067L16.4011 8.6567ZM9.29642 15.6027L6.24833 15.8737L6.51863 12.9177L12.2698 7.3007L15.0301 9.9977L9.29642 15.6027ZM19.4533 21.9777C20.0164 21.9777 20.4772 21.5277 20.4772 20.9777C20.4772 20.4287 20.0164 19.9777 19.4533 19.9777H5.11899C4.55688 19.9777 4.09511 20.4287 4.09511 20.9777C4.09511 21.5277 4.55688 21.9777 5.11899 21.9777H19.4533Z" fill="#808080"/>
</svg>
