<svg width="65" height="64" viewBox="0 0 65 64" fill="none" xmlns="http://www.w3.org/2000/svg">
<path d="M32.8513 63.9597C50.4878 63.9597 64.8326 49.6149 64.8326 31.9813C64.8326 14.3448 50.4878 0 32.8513 0C15.2148 0 0.870041 14.3448 0.870041 31.9813C0.872894 49.6149 15.2177 63.9597 32.8513 63.9597ZM33 1C50.3142 1 64 14.6858 64 32C64 49.3142 50.1655 63 32.8513 63C15.5372 63 2 49.2955 2 31.9813C2 14.6671 15.6858 1 33 1Z" fill="#303030"/>
<path d="M21.5 35.5C21.2033 35.5 20.9133 35.588 20.6666 35.7528C20.42 35.9176 20.2277 36.1519 20.1142 36.426C20.0006 36.7001 19.9709 37.0017 20.0288 37.2926C20.0867 37.5836 20.2296 37.8509 20.4393 38.0607C20.6491 38.2704 20.9164 38.4133 21.2074 38.4712C21.4983 38.5291 21.7999 38.4993 22.074 38.3858C22.3481 38.2723 22.5824 38.08 22.7472 37.8334C22.912 37.5867 23 37.2967 23 37C22.9996 36.6023 22.8414 36.221 22.5602 35.9398C22.279 35.6586 21.8977 35.5004 21.5 35.5ZM21.5 37.5C21.4011 37.5 21.3044 37.4707 21.2222 37.4157C21.14 37.3608 21.0759 37.2827 21.0381 37.1913C21.0002 37.1 20.9903 36.9994 21.0096 36.9025C21.0289 36.8055 21.0765 36.7164 21.1464 36.6464C21.2164 36.5765 21.3055 36.5289 21.4025 36.5096C21.4994 36.4903 21.6 36.5002 21.6913 36.5381C21.7827 36.5759 21.8608 36.64 21.9157 36.7222C21.9707 36.8044 22 36.9011 22 37C21.9999 37.1326 21.9471 37.2597 21.8534 37.3534C21.7597 37.4471 21.6326 37.4999 21.5 37.5Z" fill="black"/>
<path d="M40.5 35.5C40.2033 35.5 39.9133 35.588 39.6666 35.7528C39.42 35.9176 39.2277 36.1519 39.1142 36.426C39.0007 36.7001 38.9709 37.0017 39.0288 37.2926C39.0867 37.5836 39.2296 37.8509 39.4393 38.0607C39.6491 38.2704 39.9164 38.4133 40.2074 38.4712C40.4983 38.5291 40.7999 38.4993 41.074 38.3858C41.3481 38.2723 41.5824 38.08 41.7472 37.8334C41.912 37.5867 42 37.2967 42 37C41.9996 36.6023 41.8414 36.221 41.5602 35.9398C41.279 35.6586 40.8977 35.5004 40.5 35.5ZM40.5 37.5C40.4011 37.5 40.3044 37.4707 40.2222 37.4157C40.14 37.3608 40.0759 37.2827 40.0381 37.1913C40.0002 37.1 39.9903 36.9994 40.0096 36.9025C40.0289 36.8055 40.0765 36.7164 40.1464 36.6464C40.2164 36.5765 40.3055 36.5289 40.4025 36.5096C40.4994 36.4903 40.6 36.5002 40.6913 36.5381C40.7827 36.5759 40.8608 36.64 40.9157 36.7222C40.9707 36.8044 41 36.9011 41 37C40.9999 37.1326 40.9471 37.2597 40.8534 37.3534C40.7597 37.4471 40.6326 37.4999 40.5 37.5Z" fill="black"/>
<path d="M44 37C44 36.5354 43.9075 36.0754 43.7279 35.6469C43.5483 35.2183 43.2851 34.8299 42.9537 34.5041C42.6224 34.1784 42.2295 33.9219 41.798 33.7496C41.3665 33.5773 40.905 33.4926 40.4404 33.5005C38.5434 33.5322 37 35.1242 37 37.0494V38.7291C35.6304 38.3563 33.6327 38 31 38C28.3674 38 26.3697 38.3563 25 38.7291V37C25 36.5289 24.905 36.0627 24.7205 35.6293C24.536 35.1959 24.2659 34.8041 23.9264 34.4775C23.5869 34.151 23.185 33.8963 22.7447 33.7288C22.3044 33.5613 21.8349 33.4844 21.3642 33.5026C20.4845 33.5397 19.6509 33.9058 19.0283 34.5283C18.4058 35.1509 18.0397 35.9845 18.0027 36.8641C17.9693 37.7286 18.2571 38.5748 18.8105 39.2396C19.364 39.9045 20.1439 40.341 21 40.465V42.5C21.0006 43.0303 21.2115 43.5386 21.5865 43.9136C21.9614 44.2885 22.4698 44.4994 23 44.5V46C23 46.1326 23.0527 46.2598 23.1465 46.3536C23.2403 46.4473 23.3674 46.5 23.5 46.5H25C25.0929 46.5 25.1839 46.4742 25.2629 46.4253C25.3419 46.3765 25.4057 46.3067 25.4472 46.2236L26.309 44.5H35.691L36.5529 46.2236C36.5944 46.3067 36.6582 46.3765 36.7372 46.4253C36.8162 46.4742 36.9072 46.5 37 46.5H38.5C38.6327 46.5 38.7598 46.4473 38.8536 46.3536C38.9474 46.2598 39 46.1326 39 46V44.5C39.5303 44.4994 40.0387 44.2885 40.4136 43.9136C40.7885 43.5386 40.9994 43.0303 41 42.5V40.4644C41.8326 40.3431 42.5938 39.9264 43.1446 39.2903C43.6954 38.6543 43.999 37.8414 44 37ZM24.691 45.5H24V44.5H25.191L24.691 45.5ZM38 45.5H37.309L36.809 44.5H38V45.5ZM40.5 39.5C40.3674 39.5 40.2403 39.5527 40.1465 39.6465C40.0527 39.7402 40 39.8674 40 40V42.5C39.9997 42.7651 39.8943 43.0193 39.7068 43.2068C39.5193 43.3942 39.2652 43.4997 39 43.5H23C22.7349 43.4997 22.4808 43.3942 22.2933 43.2068C22.1058 43.0193 22.0004 42.7651 22 42.5V40C22 39.8674 21.9474 39.7402 21.8536 39.6465C21.7598 39.5527 21.6327 39.5 21.5 39.5C21.1635 39.5 20.8304 39.4321 20.5208 39.3002C20.2111 39.1684 19.9313 38.9754 19.698 38.7328C19.4647 38.4903 19.2828 38.2031 19.1632 37.8885C19.0436 37.5739 18.9887 37.2384 19.0019 36.9021C19.0284 36.2741 19.2898 35.6789 19.7342 35.2345C20.1787 34.79 20.7739 34.5286 21.4019 34.5021C21.7382 34.4889 22.0737 34.5438 22.3883 34.6633C22.7029 34.7829 22.9901 34.9648 23.2327 35.198C23.4753 35.4313 23.6683 35.7111 23.8002 36.0207C23.932 36.3304 24 36.6635 24 37V39.0375C23.2119 39.3125 22.7977 39.5401 22.7549 39.5642L23.2441 40.4364C23.2699 40.422 25.8871 39 31 39C36.113 39 38.7302 40.422 38.7549 40.4358L39.2452 39.5642C39.2024 39.5401 38.7882 39.3123 38 39.0375V37.0494C38 35.6665 39.1023 34.523 40.4571 34.5004C40.7872 34.4947 41.1152 34.5544 41.422 34.6761C41.7289 34.7978 42.0087 34.9791 42.2451 35.2095C42.4816 35.4399 42.67 35.7149 42.7997 36.0185C42.9293 36.3221 42.9975 36.6484 43.0003 36.9785C43.0031 37.3087 42.9406 37.6361 42.8162 37.9419C42.6918 38.2477 42.5081 38.5259 42.2756 38.7603C42.0432 38.9947 41.7666 39.1808 41.4618 39.3078C41.1571 39.4347 40.8302 39.5001 40.5 39.5Z" fill="black"/>
<path d="M22 30C22.0003 29.7349 22.1058 29.4807 22.2932 29.2932C22.4807 29.1058 22.7349 29.0003 23 29H39C39.2651 29.0003 39.5193 29.1058 39.7068 29.2932C39.8942 29.4807 39.9997 29.7349 40 30V32.5H41V30C40.9994 29.4697 40.7885 28.9614 40.4136 28.5864C40.0386 28.2115 39.5303 28.0006 39 28H23C22.4697 28.0006 21.9614 28.2115 21.5864 28.5864C21.2115 28.9614 21.0006 29.4697 21 30V32.5H22V30Z" fill="black"/>
<path d="M28 31H29V32H28V31Z" fill="black"/>
<path d="M30.5 33.5H31.5V34.5H30.5V33.5Z" fill="black"/>
<path d="M25.5 33.5H26.5V34.5H25.5V33.5Z" fill="black"/>
<path d="M28 36H29V37H28V36Z" fill="black"/>
<path d="M33 31H34V32H33V31Z" fill="black"/>
<path d="M35.5 33.5H36.5V34.5H35.5V33.5Z" fill="black"/>
<path d="M33 36H34V37H33V36Z" fill="black"/>
<path d="M46 15.5H32C31.4697 15.5006 30.9614 15.7115 30.5864 16.0864C30.2115 16.4614 30.0006 16.9697 30 17.5V18H31V17.5C31.0003 17.2349 31.1058 16.9807 31.2932 16.7932C31.4807 16.6058 31.7349 16.5003 32 16.5H38.5V27H39.5V16.5H46C46.2651 16.5003 46.5193 16.6058 46.7068 16.7932C46.8942 16.9807 46.9997 17.2349 47 17.5V42.5C46.9997 42.7651 46.8942 43.0193 46.7068 43.2068C46.5193 43.3942 46.2651 43.4997 46 43.5H41.5V44.5H42.691L43.5528 46.2236C43.5943 46.3067 43.6582 46.3765 43.7372 46.4253C43.8161 46.4741 43.9072 46.5 44 46.5H45.5C45.6326 46.5 45.7598 46.4473 45.8536 46.3536C45.9473 46.2598 46 46.1326 46 46V44.5C46.5303 44.4994 47.0386 44.2885 47.4136 43.9136C47.7885 43.5386 47.9994 43.0303 48 42.5V17.5C47.9994 16.9697 47.7885 16.4614 47.4136 16.0864C47.0386 15.7115 46.5303 15.5006 46 15.5ZM45 45.5H44.309L43.809 44.5H45V45.5Z" fill="black"/>
<path d="M21.5001 26H26.0001V27H27.0001V26H31.5001C31.5693 26 31.6377 25.9856 31.701 25.9579C31.7643 25.9301 31.8212 25.8894 31.868 25.8385C31.9149 25.7876 31.9506 25.7276 31.9731 25.6622C31.9955 25.5967 32.0041 25.5274 31.9984 25.4584L31.4984 19.4584C31.4879 19.3335 31.4309 19.217 31.3386 19.1321C31.2463 19.0471 31.1255 19 31.0001 19H27.0001V18H26.0001V19H22.0001C21.8747 19 21.7539 19.0471 21.6616 19.1321C21.5693 19.217 21.5123 19.3335 21.5019 19.4584L21.0019 25.4584C20.9961 25.5274 21.0047 25.5967 21.0271 25.6622C21.0496 25.7276 21.0853 25.7876 21.1322 25.8385C21.179 25.8894 21.2359 25.9301 21.2992 25.9579C21.3625 25.9856 21.4309 26 21.5001 26ZM22.4602 20H30.54L30.9567 25H22.0435L22.4602 20Z" fill="black"/>
</svg>
