<svg width="22" height="22" viewBox="0 0 22 22" fill="none" xmlns="http://www.w3.org/2000/svg">
<path d="M9.87501 11C9.87501 11.2984 9.99354 11.5845 10.2045 11.7955C10.4155 12.0065 10.7016 12.125 11 12.125C11.2984 12.125 11.5845 12.0065 11.7955 11.7955C12.0065 11.5845 12.125 11.2984 12.125 11C12.125 10.7016 12.0065 10.4155 11.7955 10.2045C11.5845 9.99353 11.2984 9.875 11 9.875C10.7016 9.875 10.4155 9.99353 10.2045 10.2045C9.99354 10.4155 9.87501 10.7016 9.87501 11ZM14.5625 11C14.5625 11.2984 14.681 11.5845 14.892 11.7955C15.103 12.0065 15.3891 12.125 15.6875 12.125C15.9859 12.125 16.272 12.0065 16.483 11.7955C16.694 11.5845 16.8125 11.2984 16.8125 11C16.8125 10.7016 16.694 10.4155 16.483 10.2045C16.272 9.99353 15.9859 9.875 15.6875 9.875C15.3891 9.875 15.103 9.99353 14.892 10.2045C14.681 10.4155 14.5625 10.7016 14.5625 11ZM5.18751 11C5.18751 11.2984 5.30604 11.5845 5.51702 11.7955C5.72799 12.0065 6.01414 12.125 6.31251 12.125C6.61088 12.125 6.89703 12.0065 7.10801 11.7955C7.31898 11.5845 7.43751 11.2984 7.43751 11C7.43751 10.7016 7.31898 10.4155 7.10801 10.2045C6.89703 9.99353 6.61088 9.875 6.31251 9.875C6.01414 9.875 5.72799 9.99353 5.51702 10.2045C5.30604 10.4155 5.18751 10.7016 5.18751 11ZM20.6844 6.93125C20.1547 5.67266 19.3953 4.54297 18.4274 3.57266C17.4662 2.60796 16.3251 1.84114 15.0688 1.31563C13.7797 0.774219 12.4109 0.5 11 0.5H10.9531C9.53282 0.507031 8.15704 0.788281 6.86329 1.34141C5.61772 1.87232 4.48735 2.64049 3.53517 3.60312C2.57657 4.57109 1.82423 5.69609 1.30392 6.95C0.764855 8.24844 0.49298 9.62891 0.500011 11.0492C0.507964 12.6769 0.893039 14.2806 1.62501 15.7344V19.2969C1.62501 19.5828 1.7386 19.857 1.94079 20.0592C2.14297 20.2614 2.4172 20.375 2.70314 20.375H6.26798C7.72179 21.107 9.32547 21.492 10.9531 21.5H11.0024C12.4063 21.5 13.768 21.2281 15.05 20.6961C16.3 20.1768 17.4368 19.419 18.3969 18.4648C19.3649 17.5063 20.1266 16.3859 20.6586 15.1367C21.2117 13.843 21.493 12.4672 21.5 11.0469C21.507 9.61953 21.2305 8.23438 20.6844 6.93125ZM17.143 17.1969C15.5 18.8234 13.3203 19.7188 11 19.7188H10.9602C9.54689 19.7117 8.14298 19.3602 6.90314 18.6992L6.70626 18.5938H3.40626V15.2938L3.30079 15.0969C2.63985 13.857 2.28829 12.4531 2.28126 11.0398C2.27189 8.70312 3.16485 6.50937 4.80314 4.85703C6.43907 3.20469 8.62579 2.29062 10.9625 2.28125H11.0024C12.1742 2.28125 13.3109 2.50859 14.382 2.95859C15.4274 3.39687 16.3649 4.02734 17.1711 4.83359C17.975 5.6375 18.6078 6.57734 19.0461 7.62266C19.5008 8.70547 19.7281 9.85391 19.7234 11.0398C19.7094 13.3742 18.793 15.5609 17.143 17.1969Z" fill="#808080"/>
</svg>
