<svg width="21" height="17" viewBox="0 0 21 17" fill="none" xmlns="http://www.w3.org/2000/svg">
<path d="M7 17V16H8V15H3C2.20435 15 1.44129 14.6839 0.87868 14.1213C0.31607 13.5587 0 12.7956 0 12V3C0 2.20435 0.31607 1.44129 0.87868 0.87868C1.44129 0.316071 2.20435 0 3 0H18C18.7956 0 19.5587 0.316071 20.1213 0.87868C20.6839 1.44129 21 2.20435 21 3V12C21 12.7956 20.6839 13.5587 20.1213 14.1213C19.5587 14.6839 18.7956 15 18 15H13V16H14V17H7ZM9 15V16H12V15H9ZM3 1C2.46957 1 1.96086 1.21071 1.58579 1.58579C1.21071 1.96086 1 2.46957 1 3V12C1 12.5304 1.21071 13.0391 1.58579 13.4142C1.96086 13.7893 2.46957 14 3 14H18C18.5304 14 19.0391 13.7893 19.4142 13.4142C19.7893 13.0391 20 12.5304 20 12V3C20 2.46957 19.7893 1.96086 19.4142 1.58579C19.0391 1.21071 18.5304 1 18 1H3Z" fill="#909090"/>
</svg>
